ply
format ascii 1.0
comment mesh segmenter output by Nikolai Zakharov
element vertex 453
property float x
property float y
property float z
element face 944
property list uchar int vertex_indices
property uint8 red
property uint8 green
property uint8 blue
end_header
-0.0312216 0.126304 0.00514924
-0.0446774 0.131204 0.00570479
-0.0683011 0.144828 0.0413688
-0.00600095 0.130398 0.0178986
-0.0173568 0.127613 0.00526885
0.0330513 0.107034 0.0319543
0.0400873 0.10521 0.0173419
-0.0301802 0.106322 0.0399745
0.0304193 0.118572 0.0188068
-0.0640822 0.159391 -0.0169096
0.0447046 0.0927877 0.00507585
-0.0316754 0.170395 -0.00635023
-0.0848523 0.134078 0.0470177
-0.0688547 0.122052 0.0517569
0.00595475 0.131024 0.0178252
0.0404629 0.105142 0.00640978
0.0387342 0.102161 -0.00463112
-0.0914513 0.134136 0.0171026
-0.0818721 0.107166 0.031016
-0.067218 0.156155 0.0178863
-0.0795687 0.152875 0.0299311
0.00596007 0.122504 0.0346272
-0.0516317 0.145001 0.0184804
-0.0779781 0.13255 0.0513494
-0.00590708 0.127934 0.0274623
-0.0479133 0.129301 0.0269646
-0.082427 0.0928134 -0.00556046
0.01744 0.127694 0.0185348
-0.0906868 0.120305 0.0066804
-0.0294038 0.17903 -0.00787959
-0.0797891 0.14376 0.0426994
-0.018288 0.108329 0.0415098
-0.0202326 0.181846 -0.0183274
-0.0377039 0.167987 -0.0130391
0.00582164 0.12806 0.0279016
-0.0435389 0.130014 0.0175333
0.0188699 0.119862 0.032409
-0.0440101 0.167035 0.00231898
-0.089811 0.132401 0.00705743
-0.057352 0.144989 0.0315196
0.0442622 0.0934526 0.0176417
0.0412343 0.0921731 0.0285603
-0.0563953 0.154565 0.016878
-0.0206135 0.159773 -0.00717522
-0.0729893 0.0656116 0.0181693
-0.0673967 0.155256 0.00581389
-0.0904864 0.118611 0.0412148
0.0273142 0.117965 0.0286191
0.041907 0.0916386 -0.00556945
-0.0702109 0.165303 -0.0194661
-0.0061847 0.122729 0.034787
0.0300138 0.0932786 0.0421476
-0.0175129 0.162126 -0.0145489
-0.0763977 0.171291 -0.0411021
-0.0854227 0.105386 0.00339486
0.0370431 0.110443 0.0207229
-0.00659732 0.0427285 0.0469391
0.00639794 0.0437006 0.046826
-0.0559247 0.157606 0.00656455
-0.0911449 0.118816 0.0298442
-0.0595109 0.128352 0.0399626
-0.0176335 0.127605 0.0179366
-0.066633 0.153831 0.0308703
-0.0436418 0.169438 -0.00550226
-0.0572759 0.043243 0.042862
-0.0763773 0.157221 -0.0168889
-0.0434461 0.15605 0.00615795
-0.0427118 0.0421645 0.0427004
-0.0254201 0.0886622 0.0503827
-0.014179 0.12627 0.0266417
-0.0882582 0.0898687 0.00696625
-0.0688695 0.157773 -0.00687593
-0.0679676 0.142877 -0.00757643
0.0188538 0.106293 0.0416902
-0.036487 0.171225 0.000545037
-0.0664352 0.117198 -0.00987161
-0.0682606 0.170398 -0.0436995
-0.090925 0.14605 0.0190382
0.00678622 0.115841 0.0388077
0.0310139 0.0930696 -0.017798
0.0056976 0.10589 0.0435511
-0.0706519 0.13063 0.0502497
0.0059746 0.130858 0.00579479
0.0184217 0.0423182 0.042477
0.0147876 0.0909747 0.0509658
-0.00598232 0.115409 0.0402027
-0.0811312 0.117972 -0.00359453
-0.0787032 0.144274 -0.00389052
0.00581988 0.106226 -0.0208968
-0.0192761 0.119853 0.0328061
-0.00593116 0.130215 0.005954
-0.0893322 0.142745 0.0290326
-0.00762538 0.123273 -0.00981555
-0.0692263 0.178922 -0.0542743
-0.0298757 0.124252 0.0209674
-0.0848266 0.148987 0.0327697
-0.0888516 0.0909723 0.0179034
-0.0305879 0.122384 -0.00635771
-0.0307198 0.117989 0.0306166
-0.0780612 0.120653 0.0513999
0.0332714 0.108498 -0.00743195
-0.0677112 0.0928918 -0.0168814
-0.075666 0.0911817 -0.0136967
-0.082422 0.0951121 0.0310878
-0.0856984 0.136903 0.00192122
-0.0292804 0.0417747 0.051397
-0.017732 0.0423864 0.051684
-0.0656987 0.171007 -0.056644
-0.0298523 0.170905 -0.0165609
-0.0562502 0.135013 0.0330455
-0.0666127 0.133021 0.0447044
-0.0425379 0.155441 -0.00749353
-0.0545308 0.0714603 0.0397042
-0.0413159 0.0906923 -0.0225881
-0.0172876 0.0921774 0.0536212
-0.00598119 0.0940308 0.0542643
0.0423724 0.0672563 0.0295801
0.0285741 0.116909 -0.00391772
-0.0331811 0.0450744 0.0451146
-0.0539402 0.118566 0.0353731
0.0422724 0.0795546 -0.00579461
0.0297273 0.0425502 0.0304975
-0.0315639 0.0959331 -0.0236801
0.0381804 0.105121 0.0266947
-0.0284988 0.090492 -0.0290854
-0.0173189 0.0437942 0.0432695
0.00376754 0.0477551 0.0502037
0.0432673 0.0458291 0.0278251
-0.0233322 0.181239 -0.0112893
-0.0056258 0.0565038 0.0538818
0.00529431 0.0556798 0.0532881
-0.0883219 0.105757 0.0172983
-0.0566374 0.0470184 0.0305809
-0.0296243 0.0543188 0.0398951
-0.00597407 0.105897 0.0440669
-0.0214122 0.0546976 0.044641
-0.0161488 0.0574363 0.050904
-0.0568305 0.146392 -0.0026426
-0.0931466 0.119067 0.0179948
-0.061862 0.158417 -0.0293026
-0.0855858 0.10684 0.021729
0.0336642 0.0540543 0.0350841
0.042771 0.0560351 0.031559
-0.0434589 0.117191 0.0317044
-0.0680962 0.156721 -0.0426174
0.0272384 0.103156 0.0397058
-0.0293932 0.178536 -0.0145563
-0.0762697 0.0912245 0.0383419
-0.0191285 0.0985952 0.0456676
-0.053091 0.0567402 0.0293963
-0.0431978 0.0555777 0.0390838
-0.0833055 0.115643 0.046828
0.0144345 0.127081 0.026297
-0.0388913 0.123761 0.0249778
-0.0594359 0.119905 0.0399756
-0.0702332 0.154262 -0.0312401
-0.0574473 0.152576 0.0284508
-0.0480038 0.056366 0.0362663
-0.0107262 0.179662 -0.0277472
-0.0882293 0.106066 0.00846756
-0.078994 0.153984 0.00651862
-0.0295675 0.126072 0.0146338
-0.0817356 0.15439 0.0177332
-0.0795469 0.104194 -0.00620274
-0.0248608 0.122913 0.0245429
-0.0664416 0.159957 -0.0533713
-0.0784878 0.0705283 0.0174461
-0.00967101 0.173225 -0.0264945
-0.0566284 0.0547031 0.00744563
-0.0184015 0.122219 -0.00775134
-0.0695952 0.146412 -0.018032
-0.0412517 0.123196 -0.00958087
-0.0684972 0.148194 -0.028726
-0.0540036 0.055543 0.0177674
-0.0169203 0.0682168 0.0531499
-0.00607221 0.0677102 0.0564501
0.00708728 0.0673218 0.0553369
-0.0143174 0.116971 0.037836
0.0538923 0.0557547 0.0266244
0.00517855 0.0931738 0.0535873
-0.0431038 0.0674388 0.0407737
-0.0293069 0.0680733 0.041016
-0.0379555 0.161954 -0.0128021
-0.0561165 0.0654329 0.0341979
-0.0761707 0.155559 -0.0059272
-0.0552181 0.122506 -0.00946488
0.0177004 0.105983 -0.0186138
0.0534583 0.0656375 0.0264336
-0.0869152 0.0944156 0.00293118
-0.0764257 0.161707 -0.0297517
-0.0440959 0.127453 -0.00327875
-0.0312919 0.0798298 0.0434944
-0.0549448 0.106348 -0.0185625
-0.0723735 0.110057 -0.00943257
-0.0553659 0.0919829 -0.0211783
-0.0488091 0.0660127 0.0373959
-0.0473086 0.145156 0.00688469
-0.0803913 0.129634 -0.00469755
-0.041802 0.105934 -0.0198692
-0.00632139 0.0931652 -0.0328935
-0.00597054 0.106138 -0.0222282
-0.0294827 0.158293 -0.00619266
-0.0177953 0.106289 -0.0217771
-0.0885261 0.137839 0.0393964
-0.0674935 0.128392 -0.00863471
0.0463693 0.0715128 0.0216754
-0.0409565 0.117168 -0.0145809
-0.0106656 0.167541 -0.0199013
-0.0532547 0.157456 -0.00281896
0.00530988 0.0933129 -0.0301852
-0.0773436 0.0727226 0.0266546
-0.0625087 0.149934 -0.0150319
-0.0688014 0.0685726 0.0306649
-0.0545252 0.0808478 -0.0201707
-0.0436768 0.078916 0.0428855
-0.0185748 0.0789703 0.0557353
-0.00599993 0.0794548 0.0578008
0.00706485 0.0811917 0.0558187
-0.0850269 0.146034 0.00585954
0.0370111 0.110397 0.00265294
-0.0683084 0.0803316 0.0407109
-0.055894 0.0792594 0.0435335
0.0381456 0.0881056 -0.0138675
-0.0642837 0.0396418 0.039624
-0.0698696 0.168536 -0.0313319
-0.061796 0.155741 -0.0207923
-0.0622848 0.16236 -0.0396288
-0.0686864 0.0923704 0.0421978
-0.049353 0.139298 0.0147955
-0.0784177 0.110126 0.0417886
0.0179416 0.0792747 0.0518862
0.00532732 0.123661 -0.00997105
-0.0556774 0.0935206 0.044207
-0.0431924 0.0921154 0.0432689
-0.0298626 0.0940124 0.0444805
0.0205955 0.087113 0.0492325
0.01721 0.127663 0.00512593
-0.0290125 0.106719 -0.0207479
0.0185443 0.0948112 0.0477587
-0.00588676 0.116622 -0.0160049
-0.0528191 0.162649 0.00296711
0.0358078 0.0958594 -0.0120328
-0.0912064 0.131415 0.0295307
-0.067874 0.106952 0.0403725
-0.0441636 0.104918 0.0401706
0.00749586 0.09835 0.0488255
-0.0554961 0.103898 0.0411405
-0.0669044 0.115717 0.0473479
-0.0501524 0.140326 0.00258818
-0.0554508 0.13242 -0.00485445
-0.014752 0.181897 -0.0262781
-0.029558 0.161783 -0.0143368
-0.0561854 0.111277 0.0373713
-0.040984 0.110496 0.0370883
-0.0320055 0.110468 0.0370438
0.0250033 0.110611 0.0368459
-0.046987 0.147434 -0.00222536
-0.0183407 0.0352362 0.0507938
-0.0178406 0.170484 -0.0181143
-0.0569472 0.0349416 0.0423717
0.00583339 0.0351076 0.0420914
-0.0428024 0.0351574 0.0416872
-0.066462 0.104777 -0.0148582
0.0257452 0.0459137 0.0381185
0.0379451 0.0817167 -0.0141547
-0.0844262 0.0797714 0.0186332
0.0532504 0.04759 0.0181903
0.0186424 0.0536035 0.046215
0.00732515 0.118243 -0.0153012
-0.0314704 0.157066 0.000976216
0.0286229 0.056876 0.0407635
0.0581591 0.0550016 0.0180254
0.016864 0.089935 -0.0269104
0.0145778 0.0585769 0.0501691
0.0367248 0.0918184 0.0366248
-0.0198801 0.166404 -0.0112699
0.0150294 0.0677357 0.0520671
0.0210524 0.0681161 0.0484346
0.0298776 0.0679936 0.0419172
0.0368358 0.0678495 0.036641
0.0574748 0.0682218 0.0171425
0.0316842 0.0785087 -0.019208
-0.0760271 0.175704 -0.0506937
-0.0655396 0.0607885 0.0175707
-0.0806026 0.081447 0.0306516
0.0189749 0.121506 -0.00694565
0.030684 0.0795461 0.0431507
0.0371888 0.0792484 0.0367937
0.0419366 0.0795911 0.0295911
0.046032 0.0793694 0.0177694
-0.0787921 0.0707773 0.00685585
-0.0293987 0.115917 -0.0147065
-0.0869924 0.113518 0.00410409
-0.0142186 0.174013 -0.0259807
0.0174795 0.0352131 -0.00592856
0.0162141 0.0358475 -0.0162131
0.0193248 0.0358322 0.0313206
0.0435544 0.0411101 0.00579916
0.0226191 0.0406052 -0.00793544
0.0191348 0.042782 -0.0192095
0.0414633 0.0456301 -0.00354513
0.0436925 0.0411968 0.01772
0.0512872 0.0463959 0.00580531
0.0285777 0.105181 -0.0142381
0.0306748 0.0445124 -0.00617993
-0.0184118 0.0948059 -0.0307434
-0.0315484 0.0343023 -0.0284081
0.0260381 0.0475902 -0.0165794
0.0554197 0.0686378 0.00589653
0.0520374 0.055073 -0.0024816
0.0567375 0.0542224 0.00512483
0.0428049 0.0553286 -0.00604704
-0.0620037 0.167422 -0.0527165
0.0341128 0.0541776 -0.00948346
0.029518 0.0560564 -0.0175875
-0.0177887 0.115911 -0.0157838
-0.0417838 0.0357602 -0.0264107
-0.00518939 0.043046 -0.0273333
-0.0664059 0.0343649 -0.00416668
0.0475414 0.0712174 0.00542617
0.0249138 0.0825163 -0.0245877
-0.0299024 0.0426031 -0.0283179
0.0218121 0.0515865 -0.0236492
-0.0271537 0.0351608 0.0509267
0.0161181 0.11563 -0.0145451
0.031738 0.0679983 -0.0183532
0.0418226 0.0675201 -0.00551555
0.0514871 0.0637279 -0.00174794
-0.0893303 0.128309 0.0428023
0.0459385 0.0796307 0.00579632
-0.0705433 0.149897 -0.0387319
-0.0429617 0.0430242 -0.0176288
-0.0719677 0.177848 -0.0474604
-0.0760529 0.177651 -0.0471457
0.0304173 0.118495 0.00573814
-0.0771451 0.167706 -0.0298798
0.0202668 0.092861 -0.0237363
-0.0254815 0.0798697 0.0510546
-0.0650541 0.0353259 0.0162237
-0.0647676 0.0350792 0.0294481
-0.0644267 0.0414591 0.0304476
-0.06432 0.0352261 0.0387914
-0.0676 0.0340299 0.00590491
-0.0679534 0.0418588 0.00668394
-0.0573497 0.0431548 0.0200229
-0.0634632 0.0414321 0.0142052
-0.059413 0.0471382 0.00628538
-0.0233834 0.0656416 0.0450976
-0.063538 0.071665 0.0379463
-0.0193036 0.0810128 -0.0384318
-0.0427206 0.0343557 -0.0191302
-0.00690237 0.03464 -0.0202171
-0.0656787 0.0408332 -0.00401793
-0.0383907 0.0419218 -0.0264039
-0.0556585 0.0432866 -0.00758834
-0.0416785 0.0420276 -0.00999679
-0.0322294 0.0446593 -0.0167499
-0.0307385 0.0563307 -0.018517
-0.0429026 0.0561897 -0.0113043
-0.0550285 0.0566557 -0.00531375
-0.0261858 0.0568836 -0.0282694
-0.0552189 0.117461 -0.0133744
-0.0190658 0.0546695 -0.0318646
-0.0687629 0.0686694 -0.00654941
-0.0730504 0.06542 0.00552859
-0.0207234 0.0672793 -0.036553
-0.0290792 0.067426 -0.0290521
-0.0328056 0.0664637 -0.0195215
-0.0177608 0.0343319 -0.0259142
-0.0773687 0.0732571 -0.00409771
0.0151616 0.126104 -0.00266395
-0.0845255 0.0800572 0.00530702
-0.0793517 0.0798559 -0.00640565
-0.0309728 0.0794701 -0.0312475
-0.0355144 0.081801 -0.0226887
-0.068141 0.0801227 -0.0164278
-0.0512932 0.034227 -0.0129013
0.0161924 0.080479 -0.0292174
-0.0144478 0.0879274 -0.0380297
-0.0173157 0.0432674 -0.0282906
-0.0193328 0.0979251 -0.024792
-0.0555479 0.0336816 -0.00619013
0.00702627 0.0978418 -0.0246055
-0.0148892 0.126068 -0.00252126
0.0175205 0.0552114 -0.0272756
-0.00953661 0.0794104 -0.0379859
0.00524266 0.0391336 -0.021947
0.0175653 0.0679339 -0.0289388
-0.0057907 0.128077 -0.00285105
0.00626556 0.128047 -0.0031705
0.00559979 0.0346604 -0.0179318
0.029824 0.0359142 0.00488977
0.00625193 0.0459623 -0.0263782
0.0143253 0.0473484 -0.0251513
0.00604086 0.0555073 -0.0304314
-0.00613413 0.0546372 -0.032635
-0.0346694 0.057124 -0.0114953
-0.00684543 0.0679742 -0.0359406
0.0056558 0.0676237 -0.0329199
-0.0569732 0.0651628 -0.00958219
-0.0422796 0.0699944 -0.0161463
-0.0175719 0.0705473 -0.0382261
-0.055586 0.0722983 -0.0161218
-0.0637884 0.0712697 -0.0138535
0.00568561 0.0790547 -0.0339189
-0.00338429 0.0804511 -0.0367226
-0.0248988 0.0815004 -0.0371078
-0.0412513 0.0791378 -0.0197746
-0.0735819 0.0777026 -0.0122023
-0.018062 0.0352627 -0.0195401
-0.031577 0.0358487 -0.0179669
-0.00602034 0.0381237 -0.0145184
-0.0177811 0.0382546 -0.0154503
0.00753447 0.0355596 -0.00650063
0.00430437 0.0384017 -0.0071754
-0.00593935 0.038948 -0.00592129
-0.0176142 0.0386055 -0.00584508
-0.0430308 0.0341391 -0.00565972
0.0189222 0.0351076 0.00499769
-0.0299129 0.0383912 -0.00582677
0.00512066 0.0348398 0.00558498
0.00103528 0.0375917 0.000952222
-0.00584714 0.0383419 0.00590803
-0.0424621 0.0343144 0.00590597
-0.017873 0.0383166 0.00599471
0.028662 0.0358411 0.0187496
-0.055026 0.0336204 0.00583816
-0.0284733 0.0381489 0.00441853
-0.000947006 0.0357374 0.0103469
0.0193224 0.0351814 0.0196616
-0.0342325 0.033759 0.00717517
0.00536022 0.0345956 0.0179871
-0.000385714 0.0351459 0.0134171
0.0334119 0.0376179 0.0210082
-0.00589791 0.0381782 0.0177062
-0.0352445 0.0350571 0.0178257
-0.0178078 0.0381962 0.0178114
-0.0261898 0.0377592 0.0177044
-0.0563247 0.0336762 0.0175265
0.00114114 0.037661 0.0223414
0.0100253 0.0355029 0.029656
0.00550127 0.0385556 0.0296609
-0.00596581 0.0388946 0.0299252
-0.0330745 0.0355217 0.0292236
-0.0277717 0.0382563 0.0322865
-0.0179091 0.0385902 0.0296167
-0.0419404 0.0343698 0.0299668
0.015243 0.0356116 0.0412692
-0.0554301 0.0342555 0.0297952
-0.0660515 0.0611144 0.00585548
-0.00654912 0.0350372 0.0453959
-0.0307826 0.0347596 0.0432959
-0.0180834 0.0348142 0.0458772
3 395 397 398 255 0 0
3 360 321 357 255 0 0
3 343 346 352 255 0 0
3 345 343 338 255 0 0
3 299 386 393 0 0 255
3 272 336 79 0 0 255
3 338 343 342 255 0 0
3 386 295 390 0 0 255
3 397 385 405 255 0 0
3 356 321 331 255 0 0
3 331 353 316 255 0 0
3 419 355 356 255 0 0
3 79 186 336 0 0 255
3 448 341 339 255 0 0
3 314 384 322 0 0 255
3 295 413 390 0 0 255
3 360 362 379 255 0 0
3 355 417 350 255 0 0
3 355 354 359 255 0 0
3 405 199 404 255 0 0
3 386 392 393 255 0 0
3 386 414 411 255 0 0
3 438 448 338 255 0 0
3 409 412 410 255 0 0
3 336 272 186 0 0 255
3 339 344 338 255 0 0
3 79 320 377 0 0 255
3 415 424 416 255 0 0
3 321 353 331 255 0 0
3 79 222 281 0 0 255
3 209 272 377 0 0 255
3 339 340 344 255 0 0
3 360 365 362 255 0 0
3 396 357 356 255 0 0
3 357 367 366 255 0 0
3 346 354 352 255 0 0
3 397 401 385 255 0 0
3 345 344 346 255 0 0
3 79 336 186 0 0 255
3 398 404 387 0 0 255
3 398 397 404 255 0 0
3 365 406 401 255 0 0
3 416 419 412 255 0 0
3 395 362 397 255 0 0
3 423 426 381 255 0 0
3 365 360 366 255 0 0
3 365 366 362 255 0 0
3 354 318 352 255 0 0
3 354 352 318 255 0 0
3 355 419 417 255 0 0
3 390 351 386 255 0 0
3 306 353 321 255 0 0
3 199 209 404 255 0 0
3 409 410 306 255 0 0
3 438 338 426 255 0 0
3 393 392 384 0 0 255
3 295 299 294 0 0 255
3 366 365 362 255 0 0
3 381 426 318 255 0 0
3 356 355 410 255 0 0
3 317 392 386 255 0 0
3 306 316 353 255 0 0
3 386 413 414 0 0 255
3 317 395 394 255 0 0
3 404 209 377 0 0 255
3 322 384 314 0 0 255
3 426 342 318 255 0 0
3 385 199 405 255 0 0
3 321 360 379 255 0 0
3 318 343 352 255 0 0
3 401 349 385 255 0 0
3 272 79 377 0 0 255
3 306 350 316 255 0 0
3 299 298 294 0 0 255
3 379 362 395 255 0 0
3 417 423 381 255 0 0
3 362 365 397 255 0 0
3 411 416 412 255 0 0
3 305 349 406 255 0 0
3 331 356 357 255 0 0
3 355 358 331 255 0 0
3 379 317 368 255 0 0
3 435 423 430 255 0 0
3 79 281 320 0 0 255
3 417 381 350 255 0 0
3 351 411 412 255 0 0
3 354 331 381 255 0 0
3 390 386 411 255 0 0
3 324 186 268 0 0 255
3 355 331 354 255 0 0
3 384 394 387 0 0 255
3 342 343 318 255 0 0
3 356 410 350 255 0 0
3 392 317 394 255 0 0
3 351 390 411 255 0 0
3 318 352 354 255 0 0
3 223 340 339 255 0 0
3 356 331 357 255 0 0
3 186 79 336 0 0 255
3 199 378 305 255 0 0
3 409 351 412 255 0 0
3 368 409 306 255 0 0
3 186 272 209 0 0 255
3 397 405 404 255 0 0
3 412 356 410 255 0 0
3 299 322 384 0 0 255
3 199 305 202 255 0 0
3 331 350 376 255 0 0
3 356 357 321 255 0 0
3 317 379 395 255 0 0
3 426 338 342 255 0 0
3 356 331 358 255 0 0
3 406 349 401 255 0 0
3 415 416 411 255 0 0
3 368 321 379 255 0 0
3 414 415 411 255 0 0
3 378 349 305 255 0 0
3 394 398 387 0 0 255
3 299 384 322 0 0 255
3 368 317 351 255 0 0
3 360 357 366 255 0 0
3 384 387 325 0 0 255
3 394 395 398 255 0 0
3 331 316 350 255 0 0
3 448 339 338 255 0 0
3 404 377 387 0 0 255
3 377 281 325 0 0 255
3 299 393 322 0 0 255
3 351 317 386 255 0 0
3 349 378 199 255 0 0
3 410 355 350 255 0 0
3 365 401 397 255 0 0
3 410 350 306 255 0 0
3 368 306 321 255 0 0
3 412 419 356 255 0 0
3 410 356 350 255 0 0
3 354 381 318 255 0 0
3 344 345 338 255 0 0
3 376 381 331 255 0 0
3 385 349 199 255 0 0
3 351 409 368 255 0 0
3 350 381 376 255 0 0
3 387 377 325 0 0 255
3 392 394 384 255 0 0
3 281 264 120 0 0 255
3 356 358 396 255 0 0
3 416 427 419 255 0 0
3 281 377 320 0 0 255
3 322 393 384 0 0 255
3 424 427 416 255 0 0
3 340 64 132 255 0 0
3 299 322 314 0 0 255
3 244 253 143 0 255 0
3 45 42 58 0 255 0
3 369 290 372 120 7 111
3 70 159 54 120 7 111
3 185 361 75 0 255 0
3 196 22 228 0 255 0
3 35 161 0 0 255 0
3 332 333 76 0 255 0
3 102 101 262 0 255 0
3 61 94 164 0 255 0
3 361 206 185 0 255 0
3 49 9 155 0 255 0
3 61 161 94 0 255 0
3 43 52 258 0 255 0
3 231 268 239 0 255 0
3 54 163 26 0 255 0
3 111 269 66 0 255 0
3 212 112 348 120 7 111
3 149 183 212 120 7 111
3 202 305 237 0 255 0
3 66 58 22 0 255 0
3 131 59 138 0 255 0
3 139 225 170 0 255 0
3 109 39 110 0 255 0
3 82 236 389 0 255 0
3 43 11 201 0 255 0
3 172 139 170 0 255 0
3 101 163 262 0 255 0
3 9 71 72 0 255 0
3 180 112 195 120 7 111
3 59 46 242 0 255 0
3 344 168 346 120 7 111
3 363 403 399 120 7 111
3 87 184 65 0 255 0
3 86 193 163 0 255 0
3 18 243 229 0 255 0
3 372 26 102 120 7 111
3 252 244 119 0 255 0
3 97 291 206 0 255 0
3 90 389 388 0 255 0
3 110 23 81 0 255 0
3 224 189 53 0 255 0
3 98 153 143 0 255 0
3 96 103 18 120 7 111
3 59 229 46 0 255 0
3 345 346 343 120 7 111
3 143 25 119 0 255 0
3 220 147 284 120 7 111
3 22 42 39 0 255 0
3 190 1 0 0 255 0
3 33 108 251 0 255 0
3 403 375 402 120 7 111
3 59 242 17 0 255 0
3 290 371 372 120 7 111
3 224 335 49 0 255 0
3 258 293 207 0 255 0
3 227 147 220 120 7 111
3 17 91 77 0 255 0
3 111 182 201 0 255 0
3 332 93 333 0 255 0
3 46 229 151 0 255 0
3 117 285 236 0 255 0
3 12 30 203 0 255 0
3 239 200 315 0 255 0
3 283 212 44 120 7 111
3 258 32 293 0 255 0
3 343 168 346 120 7 111
3 45 72 71 0 255 0
3 291 202 237 0 255 0
3 131 18 140 0 255 0
3 291 237 206 0 255 0
3 375 213 402 120 7 111
3 268 186 88 0 255 0
3 258 32 11 0 255 0
3 193 86 75 0 255 0
3 72 170 211 0 255 0
3 346 168 343 120 7 111
3 244 252 246 0 255 0
3 359 358 355 120 7 111
3 171 206 185 0 255 0
3 206 198 361 0 255 0
3 19 162 20 0 255 0
3 1 35 0 0 255 0
3 97 169 291 0 255 0
3 149 150 157 120 7 111
3 171 97 206 0 255 0
3 344 173 168 120 7 111
3 160 184 87 0 255 0
3 370 285 231 0 255 0
3 111 201 269 0 255 0
3 249 137 248 0 255 0
3 139 155 225 0 255 0
3 242 328 91 0 255 0
3 45 137 72 0 255 0
3 190 249 1 0 255 0
3 154 247 243 0 255 0
3 71 184 45 0 255 0
3 388 92 169 0 255 0
3 284 147 103 120 7 111
3 149 212 283 120 7 111
3 1 196 228 0 255 0
3 12 203 328 0 255 0
3 229 99 151 0 255 0
3 19 20 62 0 255 0
3 293 167 207 0 255 0
3 190 171 185 0 255 0
3 112 221 220 120 7 111
3 249 248 1 0 255 0
3 128 29 11 0 255 0
3 96 131 70 120 7 111
3 44 212 210 120 7 111
3 32 128 11 0 255 0
3 374 113 124 120 7 111
3 200 202 315 0 255 0
3 364 44 290 120 7 111
3 292 159 28 0 255 0
3 44 210 166 120 7 111
3 76 333 53 0 255 0
3 200 209 199 0 255 0
3 243 246 252 0 255 0
3 197 87 72 0 255 0
3 70 188 26 120 7 111
3 58 42 22 0 255 0
3 363 168 449 120 7 111
3 358 400 396 120 7 111
3 247 229 243 0 255 0
3 208 137 58 0 255 0
3 76 53 224 0 255 0
3 305 124 237 120 7 111
3 3 69 24 0 255 0
3 170 65 155 0 255 0
3 104 87 197 0 255 0
3 262 193 75 0 255 0
3 94 153 98 0 255 0
3 168 359 354 120 7 111
3 76 53 107 0 255 0
3 247 243 13 0 255 0
3 144 224 53 0 255 0
3 244 246 232 0 255 0
3 190 0 97 0 255 0
3 88 186 209 0 255 0
3 42 62 156 0 255 0
3 399 402 400 120 7 111
3 221 214 232 0 255 0
3 293 250 167 0 255 0
3 49 71 9 0 255 0
3 155 172 330 0 255 0
3 88 382 209 0 255 0
3 204 72 249 0 255 0
3 35 1 228 0 255 0
3 212 348 220 120 7 111
3 66 256 111 0 255 0
3 249 190 185 0 255 0
3 124 373 374 120 7 111
3 35 25 153 0 255 0
3 201 52 43 0 255 0
3 45 184 160 0 255 0
3 191 234 233 0 255 0
3 109 25 35 0 255 0
3 207 258 52 0 255 0
3 160 218 162 0 255 0
3 32 128 29 0 255 0
3 3 61 69 0 255 0
3 65 335 189 0 255 0
3 95 20 91 0 255 0
3 119 252 243 0 255 0
3 201 11 66 0 255 0
3 22 39 109 0 255 0
3 408 372 375 120 7 111
3 265 210 284 120 7 111
3 71 49 65 0 255 0
3 107 282 93 0 255 0
3 165 76 107 0 255 0
3 11 37 66 0 255 0
3 20 77 91 0 255 0
3 160 162 19 0 255 0
3 46 328 242 0 255 0
3 168 343 346 120 7 111
3 88 200 239 0 255 0
3 155 65 189 0 255 0
3 82 90 3 0 255 0
3 92 231 239 0 255 0
3 49 335 65 0 255 0
3 396 400 357 120 7 111
3 97 171 190 0 255 0
3 373 406 365 120 7 111
3 131 138 28 0 255 0
3 90 82 389 0 255 0
3 156 62 39 0 255 0
3 188 70 54 120 7 111
3 131 54 159 0 255 0
3 137 45 58 0 255 0
3 35 228 22 0 255 0
3 160 19 45 0 255 0
3 149 283 173 120 7 111
3 18 229 59 0 255 0
3 170 72 65 0 255 0
3 72 87 65 0 255 0
3 207 158 32 0 255 0
3 212 284 210 120 7 111
3 371 70 26 120 7 111
3 159 131 28 0 255 0
3 30 95 91 0 255 0
3 75 204 185 0 255 0
3 113 194 198 120 7 111
3 90 61 3 0 255 0
3 232 246 243 0 255 0
3 224 49 155 0 255 0
3 226 76 224 0 255 0
3 32 158 250 0 255 0
3 224 53 335 0 255 0
3 77 218 38 0 255 0
3 131 159 54 0 255 0
3 366 367 373 120 7 111
3 248 256 196 0 255 0
3 232 227 220 0 255 0
3 154 110 247 0 255 0
3 154 60 110 0 255 0
3 122 198 237 0 255 0
3 110 2 30 0 255 0
3 17 38 28 0 255 0
3 169 0 4 0 255 0
3 399 400 358 120 7 111
3 229 247 99 0 255 0
3 153 25 143 0 255 0
3 66 240 58 0 255 0
3 290 44 166 120 7 111
3 86 197 75 0 255 0
3 305 380 202 120 7 111
3 108 258 52 0 255 0
3 192 262 75 0 255 0
3 29 128 32 0 255 0
3 101 102 163 0 255 0
3 226 224 139 0 255 0
3 2 20 30 0 255 0
3 119 109 60 0 255 0
3 400 367 357 120 7 111
3 54 28 86 0 255 0
3 253 98 143 0 255 0
3 37 74 63 0 255 0
3 200 199 202 0 255 0
3 359 399 358 120 7 111
3 349 373 406 120 7 111
3 364 290 369 120 7 111
3 265 96 371 120 7 111
3 372 371 26 120 7 111
3 201 66 269 0 255 0
3 161 35 94 0 255 0
3 363 364 369 120 7 111
3 144 53 76 0 255 0
3 182 33 251 0 255 0
3 181 191 180 0 255 0
3 382 88 209 0 255 0
3 372 408 375 120 7 111
3 33 63 108 0 255 0
3 132 149 64 120 7 111
3 372 375 363 120 7 111
3 52 258 207 0 255 0
3 4 61 90 0 255 0
3 211 9 72 0 255 0
3 268 88 239 0 255 0
3 45 19 42 0 255 0
3 218 77 162 0 255 0
3 138 59 17 0 255 0
3 54 86 163 0 255 0
3 275 11 43 0 255 0
3 247 13 243 0 255 0
3 35 22 109 0 255 0
3 361 192 75 0 255 0
3 138 17 28 0 255 0
3 252 119 154 0 255 0
3 282 53 333 0 255 0
3 290 166 371 120 7 111
3 363 375 403 120 7 111
3 54 159 292 0 255 0
3 38 197 86 0 255 0
3 240 66 37 0 255 0
3 18 131 96 0 255 0
3 208 111 256 0 255 0
3 62 20 2 0 255 0
3 231 285 268 0 255 0
3 166 265 371 120 7 111
3 71 65 184 0 255 0
3 54 292 28 0 255 0
3 240 37 63 0 255 0
3 165 144 76 0 255 0
3 449 173 283 120 7 111
3 99 13 23 0 255 0
3 262 192 194 0 255 0
3 124 113 122 120 7 111
3 375 194 213 120 7 111
3 113 374 407 120 7 111
3 262 163 193 0 255 0
3 265 103 96 120 7 111
3 252 119 243 0 255 0
3 370 389 236 0 255 0
3 164 94 98 0 255 0
3 348 112 220 120 7 111
3 214 191 233 0 255 0
3 154 119 60 0 255 0
3 144 165 76 0 255 0
3 42 19 62 0 255 0
3 403 402 399 120 7 111
3 0 169 97 0 255 0
3 146 32 108 0 255 0
3 155 189 144 0 255 0
3 285 324 268 0 255 0
3 247 13 99 0 255 0
3 363 369 372 120 7 111
3 312 107 76 0 255 0
3 63 33 182 0 255 0
3 189 335 53 0 255 0
3 103 227 18 120 7 111
3 169 315 291 0 255 0
3 330 172 155 0 255 0
3 198 192 361 0 255 0
3 204 249 185 0 255 0
3 333 93 282 0 255 0
3 258 11 275 0 255 0
3 93 76 107 0 255 0
3 188 54 26 0 255 0
3 208 63 111 0 255 0
3 38 104 197 0 255 0
3 375 101 194 0 255 0
3 137 256 248 0 255 0
3 165 107 312 0 255 0
3 103 265 284 120 7 111
3 30 91 203 0 255 0
3 2 39 62 0 255 0
3 242 91 17 0 255 0
3 225 9 211 0 255 0
3 346 168 354 120 7 111
3 101 102 262 0 255 0
3 26 163 102 120 7 111
3 52 251 108 0 255 0
3 39 2 110 0 255 0
3 258 275 43 0 255 0
3 63 108 11 0 255 0
3 200 88 209 0 255 0
3 406 124 305 120 7 111
3 407 374 367 120 7 111
3 110 13 247 0 255 0
3 367 374 373 120 7 111
3 182 251 201 0 255 0
3 92 239 315 0 255 0
3 166 210 265 120 7 111
3 196 66 22 0 255 0
3 234 244 233 0 255 0
3 373 349 406 120 7 111
3 197 204 75 0 255 0
3 74 11 63 0 255 0
3 170 225 211 0 255 0
3 38 218 104 0 255 0
3 96 70 371 120 7 111
3 28 38 86 0 255 0
3 252 154 243 0 255 0
3 4 383 169 0 255 0
3 218 160 87 0 255 0
3 221 232 220 120 7 111
3 375 372 102 120 7 111
3 102 101 375 0 255 0
3 328 203 91 0 255 0
3 237 198 206 120 7 111
3 389 231 92 0 255 0
3 168 173 449 120 7 111
3 12 23 30 0 255 0
3 182 111 63 0 255 0
3 244 143 119 0 255 0
3 373 374 407 120 7 111
3 32 250 293 0 255 0
3 99 23 12 0 255 0
3 155 144 330 0 255 0
3 389 370 231 0 255 0
3 155 139 172 0 255 0
3 373 124 406 120 7 111
3 13 81 23 0 255 0
3 212 220 284 120 7 111
3 214 221 112 0 255 0
3 23 110 30 0 255 0
3 363 399 359 120 7 111
3 146 29 32 0 255 0
3 104 218 87 0 255 0
3 4 161 61 0 255 0
3 60 154 110 0 255 0
3 380 305 202 120 7 111
3 363 449 364 120 7 111
3 383 388 169 0 255 0
3 233 244 232 0 255 0
3 449 283 44 120 7 111
3 131 159 70 0 255 0
3 194 192 198 120 7 111
3 315 202 291 0 255 0
3 144 76 226 0 255 0
3 109 110 60 0 255 0
3 101 262 194 0 255 0
3 95 30 20 0 255 0
3 332 76 93 0 255 0
3 364 449 44 120 7 111
3 172 170 155 0 255 0
3 94 35 153 0 255 0
3 108 29 146 0 255 0
3 400 402 213 120 7 111
3 214 233 232 0 255 0
3 162 77 20 0 255 0
3 82 3 14 0 255 0
3 236 285 370 0 255 0
3 4 0 161 0 255 0
3 61 164 89 0 255 0
3 137 249 72 0 255 0
3 400 213 407 120 7 111
3 328 99 12 0 255 0
3 18 131 140 0 255 0
3 119 25 109 0 255 0
3 137 208 256 0 255 0
3 18 59 131 0 255 0
3 195 112 183 120 7 111
3 4 90 383 0 255 0
3 258 108 32 0 255 0
3 32 29 128 0 255 0
3 388 389 92 0 255 0
3 1 248 196 0 255 0
3 213 194 113 120 7 111
3 407 213 113 120 7 111
3 243 18 227 0 255 0
3 224 155 139 0 255 0
3 155 9 225 0 255 0
3 226 139 144 0 255 0
3 144 139 155 0 255 0
3 108 63 11 0 255 0
3 29 63 11 0 255 0
3 144 189 224 0 255 0
3 232 243 227 0 255 0
3 366 373 365 120 7 111
3 42 156 39 0 255 0
3 204 197 72 0 255 0
3 151 99 46 0 255 0
3 17 77 38 0 255 0
3 63 29 108 0 255 0
3 165 312 76 0 255 0
3 169 92 315 0 255 0
3 208 240 63 0 255 0
3 256 66 196 0 255 0
3 155 330 144 0 255 0
3 158 207 167 0 255 0
3 191 214 180 0 255 0
3 58 240 208 0 255 0
3 251 52 201 0 255 0
3 110 81 13 0 255 0
3 124 122 237 120 7 111
3 258 207 32 0 255 0
3 107 53 282 0 255 0
3 90 388 383 0 255 0
3 359 168 363 120 7 111
3 373 407 374 120 7 111
3 147 227 103 120 7 111
3 11 74 37 0 255 0
3 113 198 122 120 7 111
3 250 158 167 0 255 0
3 99 328 46 0 255 0
3 206 361 185 0 255 0
3 400 407 367 120 7 111
3 287 274 286 253 108 190
3 255 36 73 253 108 190
3 179 84 80 253 108 190
3 286 51 230 253 108 190
3 177 89 31 253 108 190
3 334 100 117 44 25 189
3 127 142 141 253 108 190
3 84 179 217 253 108 190
3 100 285 117 44 25 189
3 148 31 234 253 108 190
3 27 34 152 253 108 190
3 78 21 50 253 108 190
3 325 326 311 44 25 189
3 82 14 236 253 108 190
3 14 27 236 253 108 190
3 325 311 313 44 25 189
3 31 89 7 253 108 190
3 241 48 79 44 25 189
3 222 264 281 44 25 189
3 287 288 274 253 108 190
3 123 6 55 44 25 189
3 271 310 280 44 25 189
3 142 116 141 253 108 190
3 48 222 79 44 25 189
3 80 115 179 253 108 190
3 115 148 114 253 108 190
3 27 47 8 44 25 189
3 327 326 319 44 25 189
3 116 288 279 253 108 190
3 287 286 278 253 108 190
3 5 36 255 44 25 189
3 100 241 79 44 25 189
3 271 280 178 44 25 189
3 89 98 7 253 108 190
3 142 178 116 253 108 190
3 319 329 280 44 25 189
3 264 222 120 44 25 189
3 31 7 234 253 108 190
3 274 51 286 253 108 190
3 329 10 289 44 25 189
3 238 73 80 253 108 190
3 7 254 244 253 108 190
3 152 21 36 253 108 190
3 5 123 55 44 25 189
3 288 41 274 44 25 189
3 280 205 116 44 25 189
3 10 15 40 44 25 189
3 334 8 6 44 25 189
3 285 100 186 44 25 189
3 51 238 235 253 108 190
3 254 98 244 253 108 190
3 51 73 238 253 108 190
3 47 36 5 44 25 189
3 326 281 120 44 25 189
3 7 98 254 253 108 190
3 89 164 98 253 108 190
3 279 287 278 253 108 190
3 85 177 31 253 108 190
3 308 327 319 44 25 189
3 14 24 34 44 25 189
3 280 289 205 44 25 189
3 51 5 145 253 108 190
3 48 10 329 44 25 189
3 289 40 288 44 25 189
3 24 89 50 253 108 190
3 40 6 41 44 25 189
3 51 145 73 253 108 190
3 134 85 31 253 108 190
3 27 36 47 253 108 190
3 384 325 314 44 25 189
3 40 41 288 44 25 189
3 205 288 116 44 25 189
3 236 334 117 44 25 189
3 234 7 244 253 108 190
3 100 16 79 44 25 189
3 73 36 78 253 108 190
3 319 280 308 44 25 189
3 327 311 326 44 25 189
3 15 16 219 44 25 189
3 280 116 187 44 25 189
3 236 27 8 44 25 189
3 16 100 219 44 25 189
3 6 123 41 44 25 189
3 134 80 85 253 108 190
3 48 241 100 44 25 189
3 15 6 40 44 25 189
3 34 50 21 253 108 190
3 329 289 280 44 25 189
3 85 78 50 253 108 190
3 14 3 24 44 25 189
3 8 47 5 44 25 189
3 48 16 10 44 25 189
3 245 80 179 253 108 190
3 21 78 36 253 108 190
3 134 148 115 253 108 190
3 10 16 15 44 25 189
3 178 187 116 44 25 189
3 27 14 34 44 25 189
3 280 187 178 44 25 189
3 120 48 329 44 25 189
3 222 48 120 44 25 189
3 326 325 281 44 25 189
3 41 123 5 44 25 189
3 15 334 6 44 25 189
3 85 50 177 253 108 190
3 303 100 79 44 25 189
3 186 303 79 44 25 189
3 120 329 319 44 25 189
3 6 8 55 44 25 189
3 274 5 51 44 25 189
3 134 115 80 253 108 190
3 27 152 36 253 108 190
3 152 34 21 253 108 190
3 219 334 15 44 25 189
3 10 40 289 44 25 189
3 55 8 5 44 25 189
3 84 238 80 253 108 190
3 326 120 319 44 25 189
3 271 178 266 44 25 189
3 100 334 219 44 25 189
3 61 89 69 253 108 190
3 51 235 230 253 108 190
3 289 288 205 44 25 189
3 285 186 324 44 25 189
3 5 255 145 44 25 189
3 48 100 16 44 25 189
3 50 89 177 253 108 190
3 235 84 230 253 108 190
3 100 303 186 44 25 189
3 274 41 5 44 25 189
3 80 78 85 253 108 190
3 235 238 84 253 108 190
3 16 100 79 44 25 189
3 24 69 89 253 108 190
3 310 308 280 44 25 189
3 288 287 279 253 108 190
3 334 236 8 44 25 189
3 73 78 80 253 108 190
3 34 24 50 253 108 190
3 31 148 134 253 108 190
3 244 98 253 253 108 190
3 73 145 255 253 108 190
3 191 215 337 115 133 138
3 327 308 309 104 188 44
3 337 68 191 115 133 138
3 304 391 294 104 188 44
3 309 300 311 104 188 44
3 263 141 270 104 188 44
3 418 420 294 104 188 44
3 216 217 115 104 188 44
3 257 106 323 115 133 138
3 301 302 266 104 188 44
3 179 80 245 104 188 44
3 57 126 56 104 188 44
3 149 157 183 115 133 138
3 259 341 448 115 133 138
3 257 323 452 115 133 138
3 435 437 444 115 133 138
3 286 230 277 104 188 44
3 440 296 441 104 188 44
3 431 432 434 115 133 138
3 307 304 298 104 188 44
3 130 273 276 104 188 44
3 266 127 301 104 188 44
3 452 323 451 115 133 138
3 301 425 297 104 188 44
3 135 136 174 115 133 138
3 57 130 126 104 188 44
3 297 391 300 104 188 44
3 56 450 260 115 133 138
3 420 428 422 115 133 138
3 450 106 452 115 133 138
3 314 313 304 104 188 44
3 428 432 434 115 133 138
3 432 431 434 115 133 138
3 451 261 443 115 133 138
3 309 310 302 104 188 44
3 132 149 344 115 133 138
3 129 130 175 104 188 44
3 126 130 129 104 188 44
3 451 67 261 115 133 138
3 296 260 440 104 188 44
3 273 267 276 104 188 44
3 451 118 67 115 133 138
3 223 64 340 115 133 138
3 149 173 344 115 133 138
3 421 420 422 115 133 138
3 114 148 234 104 188 44
3 176 217 175 104 188 44
3 112 180 214 115 133 138
3 446 261 259 115 133 138
3 106 135 105 115 133 138
3 300 309 302 104 188 44
3 217 179 115 104 188 44
3 307 314 304 104 188 44
3 267 277 276 104 188 44
3 105 133 118 115 133 138
3 135 133 105 115 133 138
3 276 230 217 104 188 44
3 422 428 434 115 133 138
3 341 223 339 115 133 138
3 118 133 67 115 133 138
3 447 83 260 104 188 44
3 67 64 259 115 133 138
3 121 141 263 104 188 44
3 294 298 304 115 133 138
3 270 267 83 104 188 44
3 125 136 135 115 133 138
3 422 424 415 115 133 138
3 149 132 64 115 133 138
3 278 277 267 104 188 44
3 442 436 434 115 133 138
3 278 286 277 104 188 44
3 115 114 215 104 188 44
3 266 302 271 104 188 44
3 442 56 125 115 133 138
3 414 421 422 115 133 138
3 308 310 309 104 188 44
3 422 436 424 115 133 138
3 114 234 68 104 188 44
3 106 56 125 115 133 138
3 323 105 451 115 133 138
3 259 64 223 115 133 138
3 121 127 141 104 188 44
3 300 304 311 104 188 44
3 341 259 223 115 133 138
3 276 176 130 104 188 44
3 445 444 436 115 133 138
3 279 278 270 104 188 44
3 428 420 432 115 133 138
3 307 299 314 104 188 44
3 386 299 295 115 133 138
3 425 296 429 104 188 44
3 57 83 267 104 188 44
3 296 121 83 104 188 44
3 157 180 183 115 133 138
3 216 115 215 104 188 44
3 276 277 230 104 188 44
3 431 441 439 115 133 138
3 446 259 448 115 133 138
3 127 121 301 104 188 44
3 141 279 270 104 188 44
3 443 261 446 115 133 138
3 106 257 452 115 133 138
3 133 135 181 115 133 138
3 135 347 181 115 133 138
3 181 180 133 115 133 138
3 157 150 180 115 133 138
3 429 296 431 104 188 44
3 301 121 433 104 188 44
3 442 445 436 115 133 138
3 301 433 425 104 188 44
3 133 180 150 115 133 138
3 390 413 386 115 133 138
3 175 216 215 115 133 138
3 176 276 217 104 188 44
3 183 180 195 115 133 138
3 413 420 421 115 133 138
3 68 234 191 115 133 138
3 267 130 57 104 188 44
3 299 307 298 115 133 138
3 217 216 175 104 188 44
3 150 149 132 115 133 138
3 67 132 64 115 133 138
3 106 125 135 115 133 138
3 425 121 296 104 188 44
3 434 436 422 115 133 138
3 116 279 141 104 188 44
3 263 270 83 104 188 44
3 309 311 327 104 188 44
3 439 441 434 115 133 138
3 391 425 418 104 188 44
3 314 322 384 104 188 44
3 451 105 118 115 133 138
3 181 347 191 115 133 138
3 136 129 174 115 133 138
3 56 129 136 115 133 138
3 296 440 441 104 188 44
3 296 447 260 104 188 44
3 106 105 323 115 133 138
3 300 391 304 104 188 44
3 302 310 271 104 188 44
3 414 422 415 115 133 138
3 67 259 261 115 133 138
3 340 132 344 115 133 138
3 439 434 431 115 133 138
3 67 150 132 115 133 138
3 127 266 178 104 188 44
3 442 125 445 115 133 138
3 83 57 260 104 188 44
3 135 174 347 115 133 138
3 424 437 427 115 133 138
3 230 84 217 104 188 44
3 127 178 142 104 188 44
3 296 83 447 104 188 44
3 337 215 114 115 133 138
3 436 444 437 115 133 138
3 441 442 434 115 133 138
3 314 325 313 104 188 44
3 183 112 212 115 133 138
3 294 413 295 115 133 138
3 297 302 301 104 188 44
3 56 126 129 115 133 138
3 133 150 67 115 133 138
3 174 175 215 115 133 138
3 129 175 174 115 133 138
3 297 425 391 104 188 44
3 435 443 446 115 133 138
3 436 437 424 115 133 138
3 294 420 413 115 133 138
3 337 114 68 104 188 44
3 445 125 444 115 133 138
3 125 56 136 115 133 138
3 413 421 414 115 133 138
3 444 443 435 115 133 138
3 263 83 121 104 188 44
3 270 278 267 104 188 44
3 433 121 425 104 188 44
3 418 425 429 104 188 44
3 347 174 191 115 133 138
3 296 440 431 104 188 44
3 56 260 57 115 133 138
3 391 418 294 104 188 44
3 440 441 431 115 133 138
3 420 431 432 115 133 138
3 450 56 106 115 133 138
3 267 273 130 104 188 44
3 174 215 191 115 133 138
3 300 302 297 104 188 44
3 304 313 311 104 188 44
3 130 176 175 104 188 44
